<?xml version="1.0" encoding="utf-8"?>
<!-- Generator: Adobe Illustrator 19.2.1, SVG Export Plug-In . SVG Version: 6.00 Build 0)  -->
<!DOCTYPE svg PUBLIC "-//W3C//DTD SVG 1.1//EN" "http://www.w3.org/Graphics/SVG/1.1/DTD/svg11.dtd" [
	<!ENTITY ns_extend "http://ns.adobe.com/Extensibility/1.0/">
	<!ENTITY ns_ai "http://ns.adobe.com/AdobeIllustrator/10.0/">
	<!ENTITY ns_graphs "http://ns.adobe.com/Graphs/1.0/">
	<!ENTITY ns_vars "http://ns.adobe.com/Variables/1.0/">
	<!ENTITY ns_imrep "http://ns.adobe.com/ImageReplacement/1.0/">
	<!ENTITY ns_sfw "http://ns.adobe.com/SaveForWeb/1.0/">
	<!ENTITY ns_custom "http://ns.adobe.com/GenericCustomNamespace/1.0/">
	<!ENTITY ns_adobe_xpath "http://ns.adobe.com/XPath/1.0/">
]>
<svg version="1.1" id="Layer_1" xmlns:x="&ns_extend;" xmlns:i="&ns_ai;" xmlns:graph="&ns_graphs;"
	 xmlns="http://www.w3.org/2000/svg" xmlns:xlink="http://www.w3.org/1999/xlink" x="0px" y="0px" viewBox="0 0 128 128"
	 enable-background="new 0 0 128 128" xml:space="preserve">
<metadata>
	<sfw  xmlns="&ns_sfw;">
		<slices></slices>
		<sliceSourceBounds  bottomLeftOrigin="true" height="128" width="128" x="353.9" y="-393"></sliceSourceBounds>
	</sfw>
</metadata>
<g id="VVoOPZ.tif">
	<g>
		<g>
			<path fill="#0880FF" d="M128,65.2c-0.7,1.5-1.4,3.1-3,3.8c-0.7,0.3-1.5,0.7-2.3,0.7c-4.2,0.1-8.3,0.1-12.5,0
				c-3.1-0.1-5.5-2.7-5.5-5.8c0.1-3.1,2.4-5.6,5.6-5.7c4-0.1,7.9-0.1,11.9,0c2.8,0,4.6,1.5,5.6,4.1c0.1,0.1,0.2,0.3,0.2,0.4
				C128,63.6,128,64.4,128,65.2z"/>
			<path fill="#0880FF" d="M65.2,0c1.4,0.7,2.9,1.2,3.6,2.8c0.4,0.9,0.8,1.9,0.9,2.9c0.1,3.9,0.1,7.9,0,11.8c-0.1,4.6-4.5,7.1-8.6,5
				c-1.8-0.9-2.9-2.6-2.9-4.6c-0.1-4-0.1-8.1,0-12.1c0-2.7,1.5-4.5,4-5.5c0.2-0.1,0.3-0.2,0.5-0.3C63.6,0,64.4,0,65.2,0z"/>
			<path fill="#0880FF" d="M64,29.1C83.1,29,98.8,44.6,98.9,63.9c0.1,19.2-15.3,34.8-34.8,35C44.9,99,29.1,83.2,29.1,64
				C29.1,44.7,44.7,29.2,64,29.1z M64,87.3C77,87.1,87.3,76.9,87.3,63.9c0-13.1-10.6-23.3-23.3-23.2c-13,0-23.2,10.5-23.2,23.3
				C40.7,76.9,51.3,87.3,64,87.3z"/>
			<path fill="#0880FF" d="M96.7,36.9c-2.3-0.2-4.2-1.3-5.1-3.5c-1-2.2-0.6-4.4,1-6.1c2.8-3,5.7-5.9,8.7-8.7
				c2.2-2.1,5.7-1.9,7.8,0.2c2.2,2.2,2.4,5.7,0.3,7.9c-2.8,3-5.8,5.9-8.7,8.7C99.7,36.5,98.3,36.9,96.7,36.9z"/>
			<path fill="#0880FF" d="M36.9,96.8c-0.1,1.6-0.5,3-1.6,4.1c-2.8,2.8-5.6,5.7-8.4,8.4c-2.3,2.2-5.8,2.1-8.1-0.1
				c-2.2-2.2-2.3-5.7-0.1-8c2.8-2.9,5.6-5.7,8.5-8.4c1.8-1.7,3.9-2.1,6.2-1.1C35.6,92.6,36.7,94.5,36.9,96.8z"/>
			<path fill="#0880FF" d="M31.2,36.9c-1.6,0-3-0.5-4.1-1.6c-2.8-2.8-5.7-5.6-8.4-8.5c-2.3-2.4-2.2-5.8,0.2-8.1c2.2-2.2,5.7-2.2,8,0
				c2.8,2.7,5.6,5.5,8.4,8.4c1.7,1.7,2.1,3.9,1.2,6.1C35.5,35.5,33.7,36.7,31.2,36.9z"/>
			<path fill="#0880FF" d="M91,97.5c0.2-3,1.2-4.8,3.5-5.9c2.2-1,4.4-0.7,6.1,0.9c3.1,2.9,6.1,5.9,9,8.9c2.1,2.2,1.8,5.6-0.4,7.8
				c-2.1,2.1-5.6,2.3-7.7,0.2c-3.1-2.9-6.1-5.9-8.9-9C91.7,99.7,91.4,98.2,91,97.5z"/>
			<path fill="#0880FF" d="M69.7,116.4c0,2,0.1,4.1,0,6.1c-0.2,3.1-2.7,5.5-5.8,5.4c-3,0-5.6-2.4-5.7-5.6c-0.1-4.1-0.1-8.1,0-12.2
				c0-2.4,1.3-4.2,3.5-5c2.3-0.9,4.4-0.5,6.2,1.2c1,1,1.7,2.2,1.7,3.7C69.8,112.2,69.7,114.3,69.7,116.4z"/>
			<path fill="#0880FF" d="M11.6,58.3c2.1,0,4.2-0.1,6.2,0c3.1,0.1,5.4,2.7,5.4,5.7c0,3-2.4,5.7-5.5,5.7c-4,0.1-8,0.1-12.1,0
				C2.4,69.7,0,67.1,0,63.9c0-3.1,2.5-5.6,5.8-5.7C7.7,58.2,9.7,58.2,11.6,58.3C11.6,58.2,11.6,58.2,11.6,58.3z"/>
		</g>
	</g>
</g>
</svg>
