<?xml version="1.0" encoding="utf-8"?>
<!-- Generator: Adobe Illustrator 24.0.2, SVG Export Plug-In . SVG Version: 6.00 Build 0)  -->
<svg version="1.1"
	 id="Capa_1" xmlns:cc="http://creativecommons.org/ns#" xmlns:dc="http://purl.org/dc/elements/1.1/" xmlns:inkscape="http://www.inkscape.org/namespaces/inkscape" xmlns:rdf="http://www.w3.org/1999/02/22-rdf-syntax-ns#" xmlns:sodipodi="http://sodipodi.sourceforge.net/DTD/sodipodi-0.dtd" xmlns:svg="http://www.w3.org/2000/svg"
	 xmlns="http://www.w3.org/2000/svg" xmlns:xlink="http://www.w3.org/1999/xlink" x="0px" y="0px" viewBox="0 0 48 48"
	 style="enable-background:new 0 0 48 48;" xml:space="preserve">
<style type="text/css">
	.st0{fill:#0880FF;}
</style>
<g id="yvpMh9.tif">
	<g>
		<g>
			<path class="st0" d="M41.29,26.42c-0.06,0.16-0.04,0.32-0.04,0.47c0,5.71,0,11.41,0,17.12c0,0.33-0.03,0.66-0.08,0.99
				c-0.16,1.05-1.05,1.89-2.12,1.9c-2.72,0.03-5.44,0.01-8.16,0.01c-0.06,0-0.13-0.02-0.19-0.03c-0.1-0.17-0.06-0.34-0.06-0.5
				c0-4.4,0-8.8,0-13.21c0-1.1-0.27-2.1-1.1-2.89c-0.66-0.62-1.45-0.95-2.34-0.96c-2.03-0.03-4.07-0.02-6.11,0
				c-1.8,0.02-3.33,1.58-3.33,3.38c0,4.56,0,9.11,0,13.67c0,0.15,0,0.31,0,0.44c-0.16,0.13-0.31,0.09-0.44,0.09
				c-2.59,0-5.18,0-7.76,0c-1.43,0-2.4-0.97-2.4-2.39c0-5.86,0-11.72,0-17.59c0-0.16,0.03-0.33-0.04-0.49
				C7,26.32,6.85,26.35,6.71,26.35c-0.79,0.01-1.59,0.04-2.38,0.04c-0.42,0-0.84-0.03-1.25-0.12c-1.54-0.33-2.29-1.97-1.54-3.36
				c0.28-0.52,0.68-0.95,1.1-1.37C9.02,15.16,15.41,8.77,21.8,2.39c0.3-0.3,0.61-0.58,0.95-0.82c1.02-0.73,2.12-0.67,3.07,0.15
				c0.39,0.34,0.77,0.7,1.14,1.06c1.81,1.8,3.62,3.61,5.43,5.41c0.31,0.31,0.64,0.6,0.99,0.92c0.15-0.16,0.11-0.34,0.12-0.51
				c0.05-0.87,0.04-1.74,0.14-2.61c0.12-1.06,1-1.91,2.06-1.94c1.14-0.03,2.28-0.03,3.42,0c1.01,0.03,1.93,0.91,2.08,1.92
				c0.05,0.32,0.06,0.64,0.06,0.96c0,2.79,0,5.57,0,8.36c0,0.41-0.08,0.81-0.02,1.22c0.06,0.44,0.25,0.79,0.56,1.1
				c1.26,1.26,2.52,2.52,3.76,3.79c0.38,0.39,0.76,0.78,1.08,1.21c0.57,0.75,0.64,1.6,0.25,2.44c-0.39,0.84-1.1,1.23-2.01,1.29
				c-1.05,0.07-2.1,0.07-3.15,0.01C41.59,26.35,41.44,26.33,41.29,26.42z"/>
		</g>
	</g>
</g>
</svg>
