<?xml version="1.0" encoding="utf-8"?>
<!-- Generator: Adobe Illustrator 19.2.1, SVG Export Plug-In . SVG Version: 6.00 Build 0)  -->
<!DOCTYPE svg PUBLIC "-//W3C//DTD SVG 1.1//EN" "http://www.w3.org/Graphics/SVG/1.1/DTD/svg11.dtd" [
	<!ENTITY ns_extend "http://ns.adobe.com/Extensibility/1.0/">
	<!ENTITY ns_ai "http://ns.adobe.com/AdobeIllustrator/10.0/">
	<!ENTITY ns_graphs "http://ns.adobe.com/Graphs/1.0/">
	<!ENTITY ns_vars "http://ns.adobe.com/Variables/1.0/">
	<!ENTITY ns_imrep "http://ns.adobe.com/ImageReplacement/1.0/">
	<!ENTITY ns_sfw "http://ns.adobe.com/SaveForWeb/1.0/">
	<!ENTITY ns_custom "http://ns.adobe.com/GenericCustomNamespace/1.0/">
	<!ENTITY ns_adobe_xpath "http://ns.adobe.com/XPath/1.0/">
]>
<svg version="1.1" id="Layer_1" xmlns:x="&ns_extend;" xmlns:i="&ns_ai;" xmlns:graph="&ns_graphs;"
	 xmlns="http://www.w3.org/2000/svg" xmlns:xlink="http://www.w3.org/1999/xlink" x="0px" y="0px" viewBox="0 0 540.6 96.2"
	 style="enable-background:new 0 0 540.6 96.2;" xml:space="preserve">
<style type="text/css">
	.st0{fill:#6D6E71;}
	.st1{fill:#0080FF;}
</style>
<metadata>
	<sfw  xmlns="&ns_sfw;">
		<slices></slices>
		<sliceSourceBounds  bottomLeftOrigin="true" height="96.2" width="540.6" x="126.9" y="-354.2"></sliceSourceBounds>
	</sfw>
</metadata>
<g>
	<g>
		<path class="st0" d="M48.1,96.2C21.6,96.2,0,74.6,0,48.1S21.6,0,48.1,0s48.1,21.6,48.1,48.1S74.6,96.2,48.1,96.2z M48.1,3.5
			c-24.6,0-44.6,20-44.6,44.6s20,44.6,44.6,44.6s44.6-20,44.6-44.6C92.6,23.5,72.7,3.5,48.1,3.5z"/>
	</g>
	<g>
		<g>
			<path class="st1" d="M48.1,54.7c-3.7,0-6.6-3-6.6-6.6s3-6.6,6.6-6.6c3.7,0,6.6,3,6.6,6.6S51.7,54.7,48.1,54.7L48.1,54.7z"/>
		</g>
		<g>
			<path class="st1" d="M48.1,39.9c-2.4,0-4.4-2-4.4-4.4s2-4.4,4.4-4.4s4.4,2,4.4,4.4S50.5,39.9,48.1,39.9L48.1,39.9z"/>
		</g>
		<g>
			<path class="st1" d="M48.1,29.7c-2.1,0-3.9-1.7-3.9-3.9c0-2.1,1.7-3.9,3.9-3.9c2.1,0,3.9,1.7,3.9,3.9
				C52,27.9,50.2,29.7,48.1,29.7L48.1,29.7z"/>
		</g>
		<g>
			<path class="st1" d="M48.1,13.2c-1.3,0-2.4-1.1-2.4-2.4s1.1-2.4,2.4-2.4c1.3,0,2.4,1.1,2.4,2.4C50.5,12.2,49.4,13.2,48.1,13.2
				L48.1,13.2z"/>
		</g>
		<g>
			<path class="st1" d="M48.1,21c-1.7,0-3.1-1.4-3.1-3.2s1.4-3.2,3.1-3.2c1.7,0,3.1,1.4,3.1,3.2S49.8,21,48.1,21L48.1,21z"/>
		</g>
		<g>
			<path class="st1" d="M41.7,43c-1.5,1.9-4.3,2.2-6.2,0.7s-2.2-4.3-0.7-6.2s4.3-2.2,6.2-0.7S43.2,41.1,41.7,43L41.7,43z"/>
		</g>
		<g>
			<path class="st1" d="M33.7,36.6c-1.3,1.7-3.8,1.9-5.4,0.6c-1.7-1.3-1.9-3.8-0.6-5.4c1.3-1.7,3.8-1.9,5.4-0.6
				C34.7,32.5,35,34.9,33.7,36.6L33.7,36.6z"/>
		</g>
		<g>
			<path class="st1" d="M20.8,26.4c-0.8,1-2.4,1.2-3.4,0.4c-1-0.8-1.2-2.4-0.4-3.4c0.8-1,2.4-1.2,3.4-0.4
				C21.5,23.8,21.7,25.3,20.8,26.4L20.8,26.4z"/>
		</g>
		<g>
			<path class="st1" d="M26.9,31.2c-1.1,1.4-3.1,1.6-4.5,0.5c-1.4-1.1-1.6-3.1-0.5-4.4c1.1-1.4,3.1-1.6,4.5-0.5
				C27.7,27.8,28,29.8,26.9,31.2L26.9,31.2z"/>
		</g>
		<g>
			<path class="st1" d="M40.1,49.9c0.5,2.4-0.9,4.8-3.3,5.3c-2.4,0.5-4.8-0.9-5.3-3.3c-0.5-2.4,0.9-4.8,3.3-5.3
				C37.2,46,39.5,47.5,40.1,49.9L40.1,49.9z"/>
		</g>
		<g>
			<path class="st1" d="M30.1,52.2c0.5,2.1-0.8,4.2-2.9,4.6c-2.1,0.5-4.2-0.8-4.6-2.9c-0.5-2.1,0.8-4.2,2.9-4.6
				C27.6,48.8,29.6,50.1,30.1,52.2L30.1,52.2z"/>
		</g>
		<g>
			<path class="st1" d="M14.1,55.8c0.3,1.3-0.5,2.6-1.8,2.9C11,59,9.7,58.2,9.4,56.9s0.5-2.6,1.8-2.9C12.5,53.7,13.8,54.5,14.1,55.8
				L14.1,55.8z"/>
		</g>
		<g>
			<path class="st1" d="M21.7,54.1c0.4,1.7-0.7,3.4-2.4,3.8c-1.7,0.4-3.4-0.7-3.8-2.4c-0.4-1.7,0.7-3.4,2.4-3.8
				C19.6,51.4,21.3,52.4,21.7,54.1L21.7,54.1z"/>
		</g>
		<g>
			<path class="st1" d="M44.5,55.5c2.2,1.1,3.1,3.7,2.1,5.9c-1.1,2.2-3.7,3.1-5.9,2.1c-2.2-1.1-3.1-3.7-2.1-5.9
				C39.7,55.3,42.3,54.4,44.5,55.5L44.5,55.5z"/>
		</g>
		<g>
			<path class="st1" d="M40.1,64.7c1.9,0.9,2.7,3.2,1.8,5.2c-0.9,1.9-3.2,2.7-5.2,1.8c-1.9-0.9-2.7-3.2-1.8-5.2
				C35.8,64.6,38.2,63.7,40.1,64.7L40.1,64.7z"/>
		</g>
		<g>
			<path class="st1" d="M33,79.5c1.2,0.6,1.7,2,1.1,3.2c-0.6,1.2-2,1.7-3.2,1.1s-1.7-2-1.1-3.2C30.3,79.4,31.8,78.9,33,79.5L33,79.5
				z"/>
		</g>
		<g>
			<path class="st1" d="M36.3,72.5c1.6,0.8,2.2,2.6,1.4,4.2S35,79,33.5,78.2c-1.6-0.8-2.2-2.6-1.4-4.2
				C32.9,72.4,34.8,71.7,36.3,72.5L36.3,72.5z"/>
		</g>
		<g>
			<path class="st1" d="M51.6,55.5c2.2-1.1,4.8-0.1,5.9,2.1c1.1,2.2,0.1,4.8-2.1,5.9c-2.2,1.1-4.8,0.1-5.9-2.1
				C48.5,59.2,49.4,56.5,51.6,55.5L51.6,55.5z"/>
		</g>
		<g>
			<path class="st1" d="M56.1,64.7c1.9-0.9,4.2-0.1,5.2,1.8c0.9,1.9,0.1,4.2-1.8,5.2c-1.9,0.9-4.2,0.1-5.2-1.8
				C53.3,67.9,54.1,65.6,56.1,64.7L56.1,64.7z"/>
		</g>
		<g>
			<path class="st1" d="M63.2,79.5c1.2-0.6,2.7-0.1,3.2,1.1c0.6,1.2,0.1,2.7-1.1,3.2c-1.2,0.6-2.7,0.1-3.2-1.1
				C61.5,81.5,62,80,63.2,79.5L63.2,79.5z"/>
		</g>
		<g>
			<path class="st1" d="M59.8,72.5c1.6-0.8,3.5-0.1,4.2,1.5c0.8,1.6,0.1,3.5-1.4,4.2c-1.6,0.8-3.5,0.1-4.2-1.5
				C57.6,75.1,58.3,73.2,59.8,72.5L59.8,72.5z"/>
		</g>
		<g>
			<path class="st1" d="M56.1,49.9c0.5-2.4,2.9-3.9,5.3-3.3c2.4,0.5,3.9,2.9,3.3,5.3c-0.5,2.4-2.9,3.9-5.3,3.3
				C57,54.7,55.5,52.3,56.1,49.9L56.1,49.9z"/>
		</g>
		<g>
			<path class="st1" d="M66,52.2c0.5-2.1,2.6-3.4,4.6-2.9c2.1,0.5,3.4,2.6,2.9,4.6C73.1,56,71,57.3,69,56.8
				C66.9,56.3,65.6,54.3,66,52.2L66,52.2z"/>
		</g>
		<g>
			<path class="st1" d="M82,55.8c0.3-1.3,1.6-2.1,2.9-1.8s2.1,1.6,1.8,2.9c-0.3,1.3-1.6,2.1-2.9,1.8C82.6,58.4,81.7,57.1,82,55.8
				L82,55.8z"/>
		</g>
		<g>
			<path class="st1" d="M74.5,54.1c0.4-1.7,2.1-2.7,3.8-2.4c1.7,0.4,2.8,2.1,2.4,3.8s-2.1,2.7-3.8,2.4
				C75.2,57.5,74.1,55.8,74.5,54.1L74.5,54.1z"/>
		</g>
		<g>
			<path class="st1" d="M54.5,43c-1.5-1.9-1.2-4.7,0.7-6.2s4.7-1.2,6.2,0.7s1.2,4.7-0.7,6.2S56,44.9,54.5,43L54.5,43z"/>
		</g>
		<g>
			<path class="st1" d="M62.5,36.6c-1.3-1.7-1.1-4.1,0.6-5.4c1.7-1.3,4.1-1.1,5.4,0.6s1.1,4.1-0.6,5.4
				C66.3,38.5,63.8,38.3,62.5,36.6L62.5,36.6z"/>
		</g>
		<g>
			<path class="st1" d="M75.3,26.4c-0.8-1-0.7-2.6,0.4-3.4c1-0.8,2.6-0.7,3.4,0.4c0.8,1,0.7,2.6-0.4,3.4
				C77.7,27.6,76.1,27.4,75.3,26.4L75.3,26.4z"/>
		</g>
		<g>
			<path class="st1" d="M69.2,31.2c-1.1-1.4-0.8-3.3,0.5-4.4c1.4-1.1,3.4-0.9,4.5,0.5s0.8,3.3-0.5,4.4
				C72.3,32.8,70.3,32.5,69.2,31.2L69.2,31.2z"/>
		</g>
	</g>
	<g>
		<path class="st0" d="M492.4,96.2H67.9l5.9-3.3c16.6-9.3,26.5-26,26.5-44.8S90.4,12.6,73.8,3.3L67.9,0h424.5
			c26.5,0,48.1,21.6,48.1,48.1S518.9,96.2,492.4,96.2z M80.7,92.6h411.7c24.6,0,44.6-20,44.6-44.6S517,3.4,492.4,3.4H80.7
			C95.3,13.7,103.8,30,103.8,48C103.8,66.1,95.3,82.3,80.7,92.6z"/>
	</g>
	<g>
		<path class="st0" d="M435.1,57.9h-24.6c-9.9,0-9.9,0-9.9-9.9s0-9.9,9.9-9.9h24.6c9.9,0,9.9,0,9.9,9.9S445,57.9,435.1,57.9
			L435.1,57.9z M445,28.4h-44.3c-4.9,0-9.9,4.9-9.9,9.9V58c0,4.9,4.9,9.9,9.9,9.9H445c4.9,0,9.9-4.9,9.9-9.9V38.2
			C454.8,33.3,449.9,28.4,445,28.4L445,28.4z"/>
	</g>
	<g>
		<path class="st0" d="M524.4,38.2c0-4.9-4.9-9.9-9.9-9.9c-4.9,0-39.4,0-44.3,0s-9.9,4.9-9.9,9.9s0,0,0,4.9s4.9,9.9,9.9,9.9
			c4.9,0,24.6,0,34.5,0c9.9,0,9.9,0,9.9,2.5s0,2.5-9.9,2.5s-44.3,0-44.3,0c0,4.9,4.9,9.9,9.9,9.9c4.9,0,39.4,0,44.3,0
			c4.9,0,9.9-4.9,9.9-9.9c0-4.9,0,0,0-4.9s-4.9-9.9-9.9-9.9c-4.9,0-24.6,0-34.5,0s-9.9,0-9.9-2.5s0-2.5,9.9-2.5
			C489.9,38.2,524.4,38.2,524.4,38.2L524.4,38.2z"/>
	</g>
	<g>
		<path class="st0" d="M321.2,67.8c0,0,0-24.6,0-29.6s4.9-9.9,9.9-9.9c4.9,0,39.4,0,44.3,0s9.9,4.9,9.9,9.9s0,4.9,0,4.9h-9.9
			c0,0,0-4.9-4.9-4.9s-19.7,0-29.6,0s-9.9,0-9.9,9.9s0,19.7,0,19.7H321.2L321.2,67.8z"/>
	</g>
	<g>
		<path class="st0" d="M315.6,67.8c0,0,0-24.6,0-29.6s-4.9-9.9-9.9-9.9c-4.9,0-39.4,0-44.3,0s-9.8,4.9-9.8,9.9s0,14.8,0,19.7
			s4.9,9.9,9.8,9.9s41.9,0,41.9,0v-9.9c0,0-22.2,0-32,0c-9.9,0-9.9,0-9.9-9.9s0,4.9,0,0c0-9.9,0-9.9,9.9-9.9c4.9,0,14.8,0,24.6,0
			c9.9,0,9.9,0,9.9,9.9s0,19.7,0,19.7h9.8V67.8z"/>
	</g>
	<g>
		<path class="st0" d="M182,67.8V13.6h9.9v14.8c0,0,39.4,0,44.3,0c4.9,0,9.9,4.9,9.9,9.9s0,29.6,0,29.6h-9.9c0,0,0-9.9,0-19.7
			c0-9.9,0-9.9-9.9-9.9s-34.5,0-34.5,0v29.6L182,67.8L182,67.8z"/>
	</g>
	<g>
		<path class="st0" d="M112.3,82.6c0,0,0-39.5,0-44.4s4.9-9.9,9.9-9.9c4.9,0,39.4,0,44.3,0s9.9,4.9,9.9,9.9s0,14.8,0,19.7
			s-4.9,9.9-9.9,9.9c-4.9,0-41.9,0-41.9,0v-9.9c0,0,22.2,0,32,0c9.9,0,9.9,0,9.9-9.9s0,9.9,0,0s0-9.9-9.9-9.9s-14.8,0-24.6,0
			c-9.9,0-9.9,0-9.9,9.9v34.5h-9.8V82.6z"/>
	</g>
	<g>
		<path class="st0" d="M533.9,93.7H533v-5.8h2c0.7,0,1.2,0.1,1.5,0.2s0.5,0.3,0.7,0.6c0.2,0.3,0.3,0.5,0.3,0.8
			c0,0.4-0.2,0.8-0.5,1.1c-0.3,0.3-0.7,0.5-1.2,0.5c0.2,0.1,0.4,0.2,0.6,0.4c0.2,0.2,0.4,0.5,0.7,1l0.7,1.1h-1.1l-0.5-0.9
			c-0.4-0.7-0.7-1.1-0.9-1.3c-0.2-0.2-0.5-0.3-0.9-0.3h-0.6v2.6H533.9z M533.9,88.7v1.7h1.1c0.5,0,0.8-0.1,1.1-0.2
			c0.2-0.1,0.3-0.4,0.3-0.7c0-0.3-0.1-0.5-0.3-0.7c-0.2-0.1-0.6-0.2-1.1-0.2L533.9,88.7L533.9,88.7z M535.2,85.4
			c1,0,1.9,0.2,2.7,0.7s1.5,1.1,2,2c0.5,0.8,0.7,1.7,0.7,2.7s-0.2,1.9-0.7,2.7c-0.5,0.8-1.1,1.5-2,2c-0.8,0.5-1.7,0.7-2.7,0.7
			s-1.9-0.2-2.7-0.7s-1.5-1.1-2-2c-0.5-0.8-0.7-1.7-0.7-2.7s0.2-1.9,0.7-2.7c0.5-0.8,1.1-1.5,2-2C533.3,85.7,534.2,85.4,535.2,85.4
			L535.2,85.4z M535.2,86.3c-1.2,0-2.3,0.4-3.2,1.3s-1.3,1.9-1.3,3.2c0,1.2,0.4,2.3,1.3,3.2c0.9,0.9,1.9,1.3,3.2,1.3
			c1.2,0,2.3-0.4,3.2-1.3s1.3-1.9,1.3-3.2c0-1.2-0.4-2.3-1.3-3.2C537.5,86.8,536.4,86.3,535.2,86.3L535.2,86.3z"/>
	</g>
</g>
</svg>
