<?xml version="1.0" encoding="utf-8"?>
<!-- Generator: Adobe Illustrator 19.2.1, SVG Export Plug-In . SVG Version: 6.00 Build 0)  -->
<!DOCTYPE svg PUBLIC "-//W3C//DTD SVG 1.1//EN" "http://www.w3.org/Graphics/SVG/1.1/DTD/svg11.dtd" [
	<!ENTITY ns_extend "http://ns.adobe.com/Extensibility/1.0/">
	<!ENTITY ns_ai "http://ns.adobe.com/AdobeIllustrator/10.0/">
	<!ENTITY ns_graphs "http://ns.adobe.com/Graphs/1.0/">
	<!ENTITY ns_vars "http://ns.adobe.com/Variables/1.0/">
	<!ENTITY ns_imrep "http://ns.adobe.com/ImageReplacement/1.0/">
	<!ENTITY ns_sfw "http://ns.adobe.com/SaveForWeb/1.0/">
	<!ENTITY ns_custom "http://ns.adobe.com/GenericCustomNamespace/1.0/">
	<!ENTITY ns_adobe_xpath "http://ns.adobe.com/XPath/1.0/">
]>
<svg version="1.1" id="Layer_1" xmlns:x="&ns_extend;" xmlns:i="&ns_ai;" xmlns:graph="&ns_graphs;"
	 xmlns="http://www.w3.org/2000/svg" xmlns:xlink="http://www.w3.org/1999/xlink" x="0px" y="0px" viewBox="0 0 128 128"
	 style="enable-background:new 0 0 128 128;" xml:space="preserve">
<style type="text/css">
	.st0{enable-background:new    ;}
	.st1{fill:#0080FF;}
</style>
<metadata>
	<sfw  xmlns="&ns_sfw;">
		<slices></slices>
		<sliceSourceBounds  bottomLeftOrigin="true" height="113.4" width="114.2" x="7.2" y="7"></sliceSourceBounds>
	</sfw>
</metadata>
<g class="st0">
	<path class="st1" d="M42.5,44.1h-17l-3.4,8.5H11.3l18.1-45H39l17.7,45H45.9L42.5,44.1z M39.7,36.2l-5.5-15.1l-5.6,15.1H39.7z"/>
	<path class="st1" d="M72.1,7.7v36.2h14v8.8H61.7v-45H72.1z"/>
	<path class="st1" d="M102.3,7.7v36.2h14v8.8H91.9v-45H102.3z"/>
</g>
<g class="st0">
	<path class="st1" d="M49.1,80.6c4.2,4.1,7,10,7,17c0,6-2.2,12.1-7,16.8c-4.2,4-9.8,6.6-17.4,6.6c-8.4,0-14.2-3.4-17.5-6.6
		c-4.3-4-7-10.1-7-16.7c0-6.5,2.9-13,6.9-17.1c3-3,8.6-6.6,17.6-6.6C38.8,74.1,44.6,76.2,49.1,80.6z M21.8,87.5c-2,1.9-4,5.2-4,10.2
		c0,4.1,1.3,7.4,4.1,10.1c2.9,2.8,6.1,3.7,9.6,3.7c4.6,0,7.8-1.7,10-3.8c1.8-1.7,3.9-4.9,3.9-10c0-4.7-1.9-8.1-3.9-10.1
		c-2.2-2.2-5.8-3.8-9.9-3.8C27.8,83.6,24.3,85,21.8,87.5z"/>
	<path class="st1" d="M88.8,83.8H74.3v8.7h13.5v8.8H74.3V120H63.9v-45h24.9V83.8z"/>
	<path class="st1" d="M121.4,83.8h-14.6v8.7h13.5v8.8h-13.5V120H96.4v-45h24.9V83.8z"/>
</g>
</svg>
