<?xml version="1.0" encoding="utf-8"?>
<!-- Generator: Adobe Illustrator 19.2.1, SVG Export Plug-In . SVG Version: 6.00 Build 0)  -->
<!DOCTYPE svg PUBLIC "-//W3C//DTD SVG 1.1//EN" "http://www.w3.org/Graphics/SVG/1.1/DTD/svg11.dtd" [
	<!ENTITY ns_extend "http://ns.adobe.com/Extensibility/1.0/">
	<!ENTITY ns_ai "http://ns.adobe.com/AdobeIllustrator/10.0/">
	<!ENTITY ns_graphs "http://ns.adobe.com/Graphs/1.0/">
	<!ENTITY ns_vars "http://ns.adobe.com/Variables/1.0/">
	<!ENTITY ns_imrep "http://ns.adobe.com/ImageReplacement/1.0/">
	<!ENTITY ns_sfw "http://ns.adobe.com/SaveForWeb/1.0/">
	<!ENTITY ns_custom "http://ns.adobe.com/GenericCustomNamespace/1.0/">
	<!ENTITY ns_adobe_xpath "http://ns.adobe.com/XPath/1.0/">
]>
<svg version="1.1" id="Layer_1" xmlns:x="&ns_extend;" xmlns:i="&ns_ai;" xmlns:graph="&ns_graphs;"
	 xmlns="http://www.w3.org/2000/svg" xmlns:xlink="http://www.w3.org/1999/xlink" x="0px" y="0px" viewBox="0 0 128 128"
	 enable-background="new 0 0 128 128" xml:space="preserve">
<metadata>
	<sfw  xmlns="&ns_sfw;">
		<slices></slices>
		<sliceSourceBounds  bottomLeftOrigin="true" height="104.6" width="127.7" x="354" y="-381.3"></sliceSourceBounds>
	</sfw>
</metadata>
<g id="A1GfcO.tif">
	<g>
		<g>
			<path fill="#0080FF" d="M62.1,11.7c1.3,0,2.7,0,4,0c0.9,1.3,2.4,0.8,3.6,1.1c22.6,4.7,40.9,15.9,52.6,36.2
				c8.2,14.3,7.1,28.7-2.4,42.3c-14.2,20.3-36.7,28.9-61.3,23.6c-10.8-2.4-16.8-8.7-18.4-19.6c-0.2-1.3-0.3-2.7-0.5-4
				c-1.2-8-4.3-10.7-12.4-10.2c-6.1,0.4-11.4-1.3-16.4-4.7C5.6,72.6,3,67.1,0.1,61.7c0-3,0-6,0-9c2.4-2.1,2.4-5.3,3.7-8
				c9.3-18.3,24.5-28.3,44.2-32.1c1.6,0,3.3,0,4.9-0.1C56.1,12.4,59.2,13.4,62.1,11.7z M74.3,92.6c0-5.8-4.6-10.4-10.4-10.5
				C58.1,82,53.2,87,53.2,92.8c0.1,5.7,4.8,10.4,10.5,10.5C69.6,103.5,74.4,98.6,74.3,92.6z M31.1,59c0.1-4.9-4-9-8.8-9.1
				c-4.8-0.1-9,4-9.1,8.8c-0.1,4.8,3.9,8.9,8.8,9C27,67.8,31.1,63.9,31.1,59z M98.3,59.9c5-0.1,8.9-4,8.8-8.9c-0.1-4.9-4-8.8-9-8.7
				c-4.9,0-8.9,4.1-8.8,8.9C89.3,56.1,93.4,60,98.3,59.9z M80.8,38.2c-0.1-4.8-4.1-8.7-9.1-8.7c-5,0-8.8,3.9-8.7,8.9
				c0.1,5,4,8.8,9,8.7C76.8,47.1,80.9,43,80.8,38.2z M54.3,38.2c0-5-3.9-8.8-8.9-8.7c-5,0-8.9,4-8.8,8.9c0,4.9,4.1,8.8,9,8.8
				C50.5,47.1,54.3,43.2,54.3,38.2z"/>
			<path fill="#0080FF" d="M62.1,11.7c-2.9,1.7-6.1,0.8-9.1,0.9c0.1-0.3,0.1-0.6,0.1-0.9C56.1,11.7,59.1,11.7,62.1,11.7z"/>
			<path fill="#0080FF" d="M53.1,11.7c0,0.3-0.1,0.6-0.1,0.9c-1.6,0-3.3,0-4.9,0.1c0.1-0.3,0.1-0.6,0.1-0.9
				C49.8,11.7,51.5,11.7,53.1,11.7z"/>
		</g>
	</g>
</g>
</svg>
