<?xml version="1.0" encoding="utf-8"?>
<!-- Generator: Adobe Illustrator 19.2.1, SVG Export Plug-In . SVG Version: 6.00 Build 0)  -->
<!DOCTYPE svg PUBLIC "-//W3C//DTD SVG 1.1//EN" "http://www.w3.org/Graphics/SVG/1.1/DTD/svg11.dtd" [
	<!ENTITY ns_extend "http://ns.adobe.com/Extensibility/1.0/">
	<!ENTITY ns_ai "http://ns.adobe.com/AdobeIllustrator/10.0/">
	<!ENTITY ns_graphs "http://ns.adobe.com/Graphs/1.0/">
	<!ENTITY ns_vars "http://ns.adobe.com/Variables/1.0/">
	<!ENTITY ns_imrep "http://ns.adobe.com/ImageReplacement/1.0/">
	<!ENTITY ns_sfw "http://ns.adobe.com/SaveForWeb/1.0/">
	<!ENTITY ns_custom "http://ns.adobe.com/GenericCustomNamespace/1.0/">
	<!ENTITY ns_adobe_xpath "http://ns.adobe.com/XPath/1.0/">
]>
<svg version="1.1"
	 id="Capa_1" xmlns:x="&ns_extend;" xmlns:i="&ns_ai;" xmlns:graph="&ns_graphs;" inkscape:version="0.48.5 r10040" sodipodi:docname="zoom_actual.svg" xmlns:cc="http://creativecommons.org/ns#" xmlns:dc="http://purl.org/dc/elements/1.1/" xmlns:inkscape="http://www.inkscape.org/namespaces/inkscape" xmlns:rdf="http://www.w3.org/1999/02/22-rdf-syntax-ns#" xmlns:sodipodi="http://sodipodi.sourceforge.net/DTD/sodipodi-0.dtd" xmlns:svg="http://www.w3.org/2000/svg"
	 xmlns="http://www.w3.org/2000/svg" xmlns:xlink="http://www.w3.org/1999/xlink" x="0px" y="0px" viewBox="0 0 48 48"
	 style="enable-background:new 0 0 48 48;" xml:space="preserve">
<style type="text/css">
	.st0{fill:#0880FF;}
</style>
<metadata>
	<sfw  xmlns="&ns_sfw;">
		<slices></slices>
		<sliceSourceBounds  bottomLeftOrigin="true" height="41.3" width="48" x="0" y="4"></sliceSourceBounds>
	</sfw>
</metadata>
<sodipodi:namedview  bordercolor="#666666" borderopacity="1" gridtolerance="10" guidetolerance="10" id="namedview11" inkscape:bbox-nodes="true" inkscape:bbox-paths="true" inkscape:current-layer="Capa_1" inkscape:cx="-13.919211" inkscape:cy="55.732282" inkscape:pageopacity="0" inkscape:pageshadow="2" inkscape:snap-bbox="true" inkscape:window-height="1378" inkscape:window-maximized="1" inkscape:window-width="2560" inkscape:window-x="-8" inkscape:window-y="-8" inkscape:zoom="5.6568543" objecttolerance="10" pagecolor="#ffffff" showgrid="false">
	<sodipodi:guide  id="guide3773" orientation="92,0" position="10,110"></sodipodi:guide>
	<sodipodi:guide  id="guide3775" orientation="0,108" position="10,16"></sodipodi:guide>
	<sodipodi:guide  id="guide3777" orientation="-92,0" position="118,18"></sodipodi:guide>
	<sodipodi:guide  id="guide3779" orientation="0,-108" position="118,112"></sodipodi:guide>
</sodipodi:namedview>
<g>
	<path class="st0" d="M45.4,12.2H9.7c-1.4,0-2.6,1.1-2.6,2.6v26.6c0,1.4,1.1,2.6,2.6,2.6h35.7c1.4,0,2.6-1.1,2.6-2.6V14.8
		C48,13.4,46.8,12.2,45.4,12.2z M45.4,14.8v18.9L40.3,29c-0.7-0.7-1.9-0.7-2.7,0.1l-5.2,5.2L22.2,22.1c-0.8-0.9-2.2-0.9-3,0l-9.5,11
		V14.8H45.4z M34.4,21.6c0-2,1.6-3.5,3.5-3.5s3.5,1.6,3.5,3.5s-1.6,3.5-3.5,3.5C36,25.2,34.4,23.6,34.4,21.6z"/>
	<g>
		<path class="st0" d="M40.3,28.7c-0.7-0.7-1.9-0.7-2.7,0.1L32.4,34l-9-10.8l-3.1-2.1c-0.4,0.1-0.8,0.3-1.1,0.6L9.7,32.8v-5.2
			l-2.3,4.8L2.6,14.8L37,5.3l2.6,9.2h2.7l-2.7-9.9c-0.4-1.4-1.8-2.2-3.2-1.8L1.9,12.3c-1.4,0.4-2.2,1.8-1.8,3.2l7.1,25.6
			c0.4,1.4,1.8,2.2,3.2,1.8l34.4-9.5c0.2,0,0.3-0.1,0.5-0.2L40.3,28.7z"/>
		<path class="st0" d="M46.6,30.2L45.4,26v7.1C46.4,32.5,46.9,31.4,46.6,30.2z"/>
	</g>
</g>
</svg>
