<?xml version="1.0" encoding="utf-8"?>
<!-- Generator: Adobe Illustrator 24.0.2, SVG Export Plug-In . SVG Version: 6.00 Build 0)  -->
<svg version="1.1"
	 id="Capa_1" xmlns:cc="http://creativecommons.org/ns#" xmlns:dc="http://purl.org/dc/elements/1.1/" xmlns:inkscape="http://www.inkscape.org/namespaces/inkscape" xmlns:rdf="http://www.w3.org/1999/02/22-rdf-syntax-ns#" xmlns:sodipodi="http://sodipodi.sourceforge.net/DTD/sodipodi-0.dtd" xmlns:svg="http://www.w3.org/2000/svg"
	 xmlns="http://www.w3.org/2000/svg" xmlns:xlink="http://www.w3.org/1999/xlink" x="0px" y="0px" viewBox="0 0 48 48"
	 style="enable-background:new 0 0 48 48;" xml:space="preserve">
<style type="text/css">
	.st0{fill:#0880FF;}
</style>
<g>
	<path class="st0" d="M23.96,5.94c-10.85,0-19.73,8.81-19.73,19.73c0,6.55,3.16,12.28,8.06,15.89l-1.43,4.22
		c-0.15,0.38-0.08,1.21,0.75,1.58c0.83,0.37,1.43-0.15,1.66-0.52l1.88-3.54c2.64,1.28,5.65,2.11,8.73,2.11s6.1-0.75,8.73-2.11
		l1.88,3.54c0.15,0.38,0.83,0.9,1.66,0.52c0.83-0.38,0.9-1.21,0.75-1.58l-1.43-4.22c4.9-3.62,8.06-9.33,8.06-15.89
		C43.69,14.75,34.88,5.94,23.96,5.94z M37.66,27.7h1.21c-0.9,6.62-6.18,11.9-12.8,12.8v-1.21c0-1.13-0.9-2.03-2.03-2.03
		c-1.13,0-2.04,0.9-2.04,2.03v1.21c-6.63-0.9-11.9-6.18-12.8-12.8h1.21c1.13,0,2.03-0.9,2.03-2.03c0-1.13-0.9-2.03-2.03-2.03H9.2
		c0.9-6.7,6.32-12.05,13.03-12.88v1.2c0,0.68,0.38,1.21,0.9,1.51c-0.15,0.23-0.23,0.45-0.23,0.68l-0.6,9.19
		c-0.75,0.52-1.21,1.35-1.21,2.33c0,1.58,0-1.66,0-0.08c0,0.15,0,0.23,0,0.38l-5.05,5.34c-0.3,0.3-0.6,1.13,0.08,1.81
		c0.68,0.68,1.43,0.45,1.81,0.15l5.8-4.74c0.08,0,0.08,0,0.15,0c0.98,0,2.49-4.74,1.66-5.2l-0.38-9.19c0-0.15-0.08-0.45-0.23-0.68
		c0.52-0.3,0.9-0.9,0.9-1.51v-1.2c6.78,0.83,12.12,6.1,13.03,12.88h-1.21c-1.13,0-2.03,0.9-2.03,2.03
		C35.63,26.8,36.54,27.7,37.66,27.7z M27.65,3.83h-7.3c0-1.73,1.66-3.31,3.61-3.31S27.65,2.17,27.65,3.83z M44.67,14.52L33.22,3.15
		c3.16-3.16,7.68-2.56,10.85,0.6C47.23,6.84,47.83,11.36,44.67,14.52z M14.78,3.15L3.33,14.6c-3.16-3.16-2.56-7.68,0.6-10.85
		S11.61-0.01,14.78,3.15z"/>
	<circle class="st0" cx="23.88" cy="24.91" r="3.39"/>
</g>
</svg>
